<svg width="17" height="19" viewBox="0 0 17 19" fill="none" xmlns="http://www.w3.org/2000/svg">
<path fill-rule="evenodd" clip-rule="evenodd" d="M8.49998 7.34929C9.45476 7.34929 10.3704 6.97001 11.0456 6.29488C11.7207 5.61975 12.1 4.70407 12.1 3.74929C12.1 2.79451 11.7207 1.87884 11.0456 1.20371C10.3704 0.528577 9.45476 0.149292 8.49998 0.149292C7.5452 0.149292 6.62952 0.528577 5.95439 1.20371C5.27926 1.87884 4.89998 2.79451 4.89998 3.74929C4.89998 4.70407 5.27926 5.61975 5.95439 6.29488C6.62952 6.97001 7.5452 7.34929 8.49998 7.34929ZM3.39863 18.1493C1.57683 18.1493 0.0422168 16.6179 0.739388 14.9347C1.16153 13.9156 1.78027 12.9896 2.56028 12.2096C3.34029 11.4296 4.2663 10.8108 5.28544 10.3887C6.30457 9.96656 7.39687 9.74929 8.49998 9.74929C9.60308 9.74929 10.6954 9.96656 11.7145 10.3887C12.7337 10.8108 13.6597 11.4296 14.4397 12.2096C15.2197 12.9896 15.8384 13.9156 16.2606 14.9347C16.9577 16.6179 15.4231 18.1493 13.6013 18.1493H3.39863Z" fill="#F53838"/>
</svg>
